<svg width="745" height="905" viewBox="0 0 745 905" fill="none" xmlns="http://www.w3.org/2000/svg">
<path d="M350.606 96.1586C361.602 116.539 368.314 138.083 371.051 159.758C311.585 159.899 251.293 174.311 195.296 204.523C142.89 232.798 99.9862 271.815 67.8387 317.377C53.0097 303.895 40.1713 287.715 30.1144 269.076C-17.6354 180.574 15.4003 70.121 103.902 22.3713C192.403 -25.3784 302.856 7.65727 350.606 96.1586ZM45.1465 709.009C-23.9369 580.967 -10.1832 430.415 68.0067 318.877C123.89 369.053 207.4 381.453 277.293 343.743C345.436 306.977 380.876 233.242 372.182 160.757C504.327 160.845 632.226 231.568 699.377 356.028C796.85 536.689 729.413 762.161 548.752 859.634C368.092 957.107 142.62 889.67 45.1465 709.009ZM195.771 205.403C251.656 175.252 311.829 160.88 371.174 160.758C379.874 232.885 344.626 306.278 276.819 342.863C207.27 380.387 124.164 368.021 68.5861 318.053C100.655 272.57 143.468 233.623 195.771 205.403Z" stroke="url(#paint0_linear_1_2)"/>
<defs>
<linearGradient id="paint0_linear_1_2" x1="52.0466" y1="722.851" x2="704.898" y2="365.209" gradientUnits="userSpaceOnUse">
<stop stop-color="#D4B098"/>
<stop offset="1" stop-color="#D4B098" stop-opacity="0"/>
</linearGradient>
</defs>
</svg>
